<?xml version="1.0" encoding="iso-8859-1"?>
<!-- Generator: Adobe Illustrator 19.0.0, SVG Export Plug-In . SVG Version: 6.00 Build 0)  -->
<svg version="1.1" id="Capa_1" xmlns="http://www.w3.org/2000/svg" xmlns:xlink="http://www.w3.org/1999/xlink" x="0px" y="0px"
	 viewBox="0 0 512 512" style="enable-background:new 0 0 512 512;" xml:space="preserve">
<path style="fill:#EFF2FA;" d="M417.705,504.5H94.294c-9.89,0-17.908-8.018-17.908-17.908V41.752c0-9.89,8.018-17.908,17.908-17.908
	h323.411c9.89,0,17.908,8.018,17.908,17.908v444.84C435.613,496.482,427.596,504.5,417.705,504.5z"/>
<path style="fill:#D7DEED;" d="M417.705,23.844h-35.002v223.089c0,120.956-98.055,219.011-219.011,219.011H76.386v20.648
	c0,9.89,8.018,17.908,17.908,17.908h323.411c9.89,0,17.908-8.018,17.908-17.908V41.752
	C435.613,31.862,427.595,23.844,417.705,23.844z"/>
<path style="fill:#FFC06C;" d="M435.613,293.318H76.386V41.752c0-9.89,8.018-17.908,17.908-17.908h323.411
	c9.89,0,17.908,8.018,17.908,17.908V293.318z"/>
<path style="fill:#FFA75F;" d="M417.705,23.844h-35.002v223.089c0,15.917-1.714,31.432-4.939,46.385h57.848V41.752
	C435.613,31.862,427.595,23.844,417.705,23.844z"/>
<path d="M167.822,86.235c0.888-1.379,1.333-3.011,1.333-4.901c0-1.81-0.424-3.403-1.273-4.781c-0.848-1.379-2.081-2.068-3.696-2.068
	h-51.262c-1.617,0-2.848,0.689-3.696,2.068s-1.273,2.971-1.273,4.781c0,1.969,0.443,3.622,1.333,4.959
	c0.888,1.339,2.1,2.007,3.636,2.007h17.814v69.78c0,1.543,0.767,2.761,2.303,3.655c1.534,0.894,3.393,1.339,5.574,1.339
	c2.1,0,3.939-0.445,5.514-1.339s2.363-2.111,2.363-3.655V88.3h17.693C165.721,88.3,166.933,87.613,167.822,86.235z"/>
<path d="M224.418,157.135c5.17-4.442,7.756-11.471,7.756-21.087v-33.811c0-9.614-2.586-16.642-7.756-21.087
	c-5.172-4.442-12.079-6.666-20.723-6.666c-8.646,0-15.533,2.223-20.663,6.666c-5.132,4.444-7.695,11.473-7.695,21.087v33.811
	c0,9.616,2.563,16.644,7.695,21.087c5.13,4.444,12.016,6.665,20.663,6.665C212.338,163.8,219.246,161.579,224.418,157.135z
	 M191.091,136.048v-33.811c0-9.29,4.2-13.937,12.604-13.937c8.483,0,12.724,4.647,12.724,13.937v33.811
	c0,9.292-4.241,13.936-12.724,13.936C195.292,149.985,191.091,145.34,191.091,136.048z"/>
<path d="M276.77,163.073h21.45c8.644,0,15.551-2.221,20.723-6.665c5.169-4.442,7.756-11.471,7.756-21.087v-33.084
	c0-9.614-2.587-16.642-7.756-21.087c-5.172-4.442-12.079-6.666-20.723-6.666h-21.45c-2.021,0-3.677,0.485-4.969,1.454
	c-1.293,0.969-1.939,2.102-1.939,3.393v78.893c0,1.293,0.646,2.423,1.939,3.393C273.092,162.588,274.748,163.073,276.77,163.073z
	 M285.616,88.3h12.604c8.483,0,12.724,4.647,12.724,13.937v33.084c0,9.292-4.241,13.937-12.724,13.937h-12.604V88.3z"/>
<path d="M367.537,163.8c8.644,0,15.551-2.221,20.723-6.665c5.17-4.442,7.756-11.471,7.756-21.087v-33.811
	c0-9.614-2.586-16.642-7.756-21.087c-5.172-4.442-12.079-6.666-20.723-6.666c-8.646,0-15.533,2.223-20.663,6.666
	c-5.132,4.444-7.696,11.473-7.696,21.087v33.811c0,9.616,2.564,16.644,7.696,21.087C352.004,161.579,358.891,163.8,367.537,163.8z
	 M354.934,102.237c0-9.29,4.2-13.937,12.604-13.937c8.483,0,12.724,4.647,12.724,13.937v33.811c0,9.292-4.241,13.936-12.724,13.936
	c-8.403,0-12.604-4.645-12.604-13.936V102.237z"/>
<path d="M127.225,186.268c-1.536-0.807-3.393-1.212-5.574-1.212s-4.041,0.406-5.574,1.212c-1.536,0.808-2.303,2.021-2.303,3.635
	v78.772c0,1.536,0.686,2.747,2.06,3.635c1.373,0.89,2.989,1.333,4.848,1.333h38.417c1.454,0,2.605-0.686,3.453-2.06
	c0.849-1.373,1.273-2.989,1.273-4.848c0-1.857-0.424-3.473-1.273-4.847c-0.848-1.373-1.999-2.061-3.453-2.061h-29.57v-69.925
	C129.527,188.289,128.758,187.076,127.225,186.268z"/>
<path d="M185.818,272.311c1.575-0.888,2.363-2.1,2.363-3.635v-78.772c0-1.615-0.769-2.827-2.303-3.635
	c-1.536-0.807-3.393-1.212-5.574-1.212s-4.041,0.406-5.574,1.212c-1.537,0.808-2.303,2.021-2.303,3.635v78.772
	c0,1.536,0.766,2.747,2.303,3.635c1.534,0.89,3.393,1.333,5.574,1.333C182.404,273.644,184.243,273.2,185.818,272.311z"/>
<path d="M206.602,270.009c11.776,6.755,29.975,7.062,40.658-2.027c5.29-4.501,7.938-10.895,7.938-19.182
	c0-4.927-0.97-9.229-2.909-12.906c-1.939-3.676-4.343-6.484-7.21-8.423c-5.683-3.841-11.905-6.836-18.269-9.361
	c-5.31-2.107-11.987-5.984-10.247-12.754c1.481-5.763,8.335-7.104,13.428-7.092c3.424,0.008,6.807,0.609,9.97,1.935
	c1.98,0.83,4.514,2.67,6.754,2.67c1.939,0,3.473-0.96,4.605-2.882c1.131-1.922,1.697-3.783,1.697-5.582
	c0-1.909-0.83-3.568-2.485-4.978c-1.656-1.409-3.799-2.446-6.422-3.111c-11.808-2.979-27.145-3.293-36.706,5.574
	c-8.951,8.302-9.354,24.814-0.664,33.455c4.737,4.71,11.408,7.547,17.435,10.184c5.432,2.376,12.333,4.97,14.589,11.007
	c2.091,5.594-0.58,11.058-6,13.197c-5.598,2.209-12.304,1.336-17.406-1.71c-2.913-1.739-4.952-4.812-8.047-6.256
	c-3.251-1.517-6.018,0.757-7.63,3.521C195.944,261.698,201.28,266.957,206.602,270.009
	C212.094,273.16,201.106,266.857,206.602,270.009z"/>
<path d="M261.438,187.124c-0.848,1.378-1.273,2.971-1.273,4.781c0,1.969,0.443,3.622,1.333,4.959c0.888,1.339,2.1,2.007,3.636,2.007
	h17.814v69.779c0,1.543,0.767,2.761,2.303,3.655c1.534,0.894,3.393,1.339,5.574,1.339c2.1,0,3.938-0.445,5.514-1.339
	c1.575-0.894,2.363-2.111,2.363-3.655v-69.779h17.694c1.533,0,2.745-0.687,3.635-2.066c0.888-1.379,1.333-3.011,1.333-4.9
	c0-1.81-0.424-3.403-1.273-4.781c-0.848-1.379-2.081-2.068-3.695-2.068h-51.262C263.517,185.056,262.286,185.745,261.438,187.124z"
	/>
<path d="M76.386,391.31c4.143,0,7.5-3.357,7.5-7.5V41.752c0-5.739,4.669-10.408,10.407-10.408h4.708v8.844
	c0,4.142,3.357,7.5,7.5,7.5s7.5-3.358,7.5-7.5v-8.844h18.167v8.844c0,4.142,3.357,7.5,7.5,7.5s7.5-3.358,7.5-7.5v-8.844h18.167
	v8.844c0,4.142,3.357,7.5,7.5,7.5s7.5-3.358,7.5-7.5v-8.844h18.167v8.844c0,4.142,3.357,7.5,7.5,7.5s7.5-3.358,7.5-7.5v-8.844
	h18.167v8.844c0,4.142,3.357,7.5,7.5,7.5s7.5-3.358,7.5-7.5v-8.844h18.168v8.844c0,4.142,3.357,7.5,7.5,7.5s7.5-3.358,7.5-7.5
	v-8.844h18.167v8.844c0,4.142,3.357,7.5,7.5,7.5s7.5-3.358,7.5-7.5v-8.844h18.167v8.844c0,4.142,3.357,7.5,7.5,7.5
	s7.5-3.358,7.5-7.5v-8.844h18.167v8.844c0,4.142,3.357,7.5,7.5,7.5s7.5-3.358,7.5-7.5v-8.844h18.167v8.844
	c0,4.142,3.357,7.5,7.5,7.5s7.5-3.358,7.5-7.5v-8.844h5.2c5.739,0,10.408,4.669,10.408,10.408c0,4.142,3.357,7.5,7.5,7.5
	s7.5-3.358,7.5-7.5c0-14.01-11.398-25.408-25.408-25.408h-5.2V7.5c0-4.142-3.357-7.5-7.5-7.5s-7.5,3.358-7.5,7.5v8.844h-18.167V7.5
	c0-4.142-3.357-7.5-7.5-7.5s-7.5,3.358-7.5,7.5v8.844h-18.167V7.5c0-4.142-3.357-7.5-7.5-7.5s-7.5,3.358-7.5,7.5v8.844h-18.167V7.5
	c0-4.142-3.357-7.5-7.5-7.5s-7.5,3.358-7.5,7.5v8.844h-18.167V7.5c0-4.142-3.357-7.5-7.5-7.5s-7.5,3.358-7.5,7.5v8.844h-18.168V7.5
	c0-4.142-3.357-7.5-7.5-7.5s-7.5,3.358-7.5,7.5v8.844h-18.167V7.5c0-4.142-3.357-7.5-7.5-7.5s-7.5,3.358-7.5,7.5v8.844h-18.167V7.5
	c0-4.142-3.357-7.5-7.5-7.5s-7.5,3.358-7.5,7.5v8.844h-18.167V7.5c0-4.142-3.357-7.5-7.5-7.5s-7.5,3.358-7.5,7.5v8.844h-18.167V7.5
	c0-4.142-3.357-7.5-7.5-7.5s-7.5,3.358-7.5,7.5v8.844h-4.708c-14.01,0-25.407,11.398-25.407,25.408V383.81
	C68.886,387.952,72.244,391.31,76.386,391.31z"/>
<path d="M435.615,67.727c-4.143,0-7.5,3.358-7.5,7.5v411.365c0,5.739-4.669,10.408-10.408,10.408H94.293
	c-5.738,0-10.407-4.669-10.407-10.408v-66.39c0-4.143-3.357-7.5-7.5-7.5s-7.5,3.357-7.5,7.5v66.39
	c0,14.01,11.397,25.408,25.407,25.408h323.412c14.01,0,25.408-11.398,25.408-25.408V75.227
	C443.115,71.084,439.757,67.727,435.615,67.727z"/>
<path d="M393.296,334.938H210.558c-4.143,0-7.5,3.357-7.5,7.5s3.357,7.5,7.5,7.5h182.738c4.143,0,7.5-3.357,7.5-7.5
	S397.439,334.938,393.296,334.938z"/>
<path d="M142.495,309.455c-18.187,0-32.982,14.796-32.982,32.982c0,18.188,14.796,32.983,32.982,32.983
	c18.188,0,32.983-14.796,32.983-32.983C175.478,324.251,160.682,309.455,142.495,309.455z M142.495,360.421
	c-9.916,0-17.982-8.067-17.982-17.983s8.066-17.982,17.982-17.982s17.983,8.066,17.983,17.982S152.411,360.421,142.495,360.421z"/>
<path d="M393.296,420.17H210.558c-4.143,0-7.5,3.357-7.5,7.5s3.357,7.5,7.5,7.5h182.738c4.143,0,7.5-3.357,7.5-7.5
	S397.439,420.17,393.296,420.17z"/>
<path d="M142.495,394.687c-18.187,0-32.982,14.796-32.982,32.983s14.796,32.983,32.982,32.983c18.188,0,32.983-14.796,32.983-32.983
	S160.682,394.687,142.495,394.687z M142.495,445.653c-9.916,0-17.982-8.067-17.982-17.983s8.066-17.983,17.982-17.983
	s17.983,8.067,17.983,17.983S152.411,445.653,142.495,445.653z"/>
<g>
</g>
<g>
</g>
<g>
</g>
<g>
</g>
<g>
</g>
<g>
</g>
<g>
</g>
<g>
</g>
<g>
</g>
<g>
</g>
<g>
</g>
<g>
</g>
<g>
</g>
<g>
</g>
<g>
</g>
</svg>
